<svg version="1.1" id="Layer_1" xmlns="http://www.w3.org/2000/svg" xmlns:xlink="http://www.w3.org/1999/xlink" x="0px" y="0px"
	 width="100%" viewBox="0 0 560 592" enable-background="new 0 0 560 592" xml:space="preserve">
<path fill="#000000" opacity="1.000000" stroke="none" 
	d="
M180.180634,474.776459 
	C167.661346,457.705750 158.623291,439.691742 157.139557,418.399597 
	C155.883011,400.367554 158.671570,382.892639 163.145157,365.607849 
	C171.155884,334.656433 184.434143,305.764160 198.193466,277.065643 
	C215.330109,241.322922 234.456955,206.570770 251.087753,170.577408 
	C264.089874,142.437454 276.162659,113.959450 283.032532,83.570580 
	C283.434906,81.790611 283.711182,79.982475 284.088623,78.196426 
	C284.457581,76.450653 284.880951,74.716393 285.249725,73.110718 
	C286.671875,72.888062 287.034698,73.568054 287.192749,74.457550 
	C292.862549,106.366089 305.069733,136.048279 318.441559,165.286530 
	C337.424591,206.794022 359.586060,246.742020 379.058594,288.010437 
	C391.999451,315.436218 403.960571,343.264435 410.661682,373.019012 
	C415.765808,395.682648 419.141937,418.917908 410.128326,440.873413 
	C390.372772,488.994293 356.500793,521.917603 303.180847,529.177856 
	C251.763596,536.179016 211.210739,516.059937 180.180634,474.776459 
M370.027283,356.287323 
	C368.419769,346.228333 366.104187,336.438263 361.369049,327.249268 
	C357.188812,319.137085 353.192688,310.729187 354.021790,301.230469 
	C355.270538,286.924713 350.724060,273.567902 347.636719,259.996948 
	C343.739258,242.865173 336.774963,226.775253 329.535858,210.859818 
	C322.860596,196.184052 317.274017,180.988998 308.753174,167.161682 
	C306.777740,163.955978 302.856171,162.541153 302.040070,158.178650 
	C301.381287,154.657303 299.728058,149.001144 295.615143,150.151138 
	C290.786316,151.501282 293.441925,156.848267 294.033173,160.643997 
	C295.633484,170.917435 296.241638,181.177292 292.880676,191.250488 
	C290.438049,198.571320 282.979919,200.257843 277.534546,194.742050 
	C276.501923,193.696075 275.798279,192.318649 274.977509,191.071350 
	C270.990479,185.012360 265.242249,184.100494 259.742462,188.760544 
	C257.324371,190.809448 255.388947,193.272614 253.543182,195.890274 
	C246.602692,205.733246 241.824936,216.624466 236.994263,227.585175 
	C229.181808,245.311478 222.538727,263.345123 219.304260,282.503357 
	C218.539230,287.034760 216.283340,290.501617 212.813995,293.384033 
	C210.643494,295.187317 208.466568,297.045807 206.621567,299.165894 
	C201.492752,305.059387 199.339874,312.160889 198.944138,319.831757 
	C198.625488,326.008423 203.540741,328.617340 207.422348,331.938416 
	C211.002960,335.001984 210.308380,338.348663 207.713211,341.615753 
	C204.987640,345.047058 201.253021,347.348480 197.930328,350.110596 
	C188.370193,358.057953 181.757004,367.727692 177.909088,379.795197 
	C173.391968,393.961426 172.684967,408.212250 174.150177,422.709473 
	C174.899811,430.126678 175.945724,437.556885 179.976685,444.214478 
	C186.005295,454.171387 192.173203,464.078491 197.528976,474.397522 
	C202.011963,483.035004 208.404892,489.790863 215.348145,496.299225 
	C220.051956,500.708466 225.572250,502.747986 231.808243,503.935333 
	C244.046005,506.265472 256.680573,505.477600 268.764404,508.971863 
	C272.600037,510.081055 277.274200,509.123199 278.791626,514.554138 
	C279.247803,516.186890 281.286560,516.629456 282.899597,517.092957 
	C286.498657,518.127075 290.136719,517.653748 293.806580,517.543579 
	C305.331604,517.197388 316.331085,513.446350 327.839233,512.712219 
	C335.576813,512.218689 343.134705,510.007690 350.028137,505.732178 
	C364.798035,496.571533 376.331787,484.305054 385.493317,469.750641 
	C402.605103,442.566162 405.888275,412.744781 401.117462,381.724152 
	C397.737244,359.745483 390.666748,338.887634 379.997223,319.058350 
	C377.056183,322.122833 377.159729,325.080109 378.204865,328.535858 
	C385.218140,351.725403 388.907349,375.214264 384.255890,399.431763 
	C381.338074,414.623138 378.087341,429.767487 377.571167,445.326782 
	C377.483521,447.968964 377.428864,450.972198 375.034790,453.197632 
	C371.457031,450.787079 372.490906,447.506226 372.829315,444.487091 
	C373.328461,440.034119 373.150787,436.100037 367.799957,434.584290 
	C365.905762,434.047760 364.972015,432.474976 364.582428,430.491638 
	C362.854767,421.696289 357.269409,416.221527 349.250793,412.856140 
	C348.275543,412.446838 346.893250,412.140564 347.643402,409.924133 
	C351.580597,411.186066 353.448395,408.298767 355.538971,405.623840 
	C356.651825,404.199951 357.919250,402.799011 359.383148,401.764404 
	C365.407471,397.506866 368.791565,392.036072 368.125946,384.414185 
	C367.997681,382.945343 368.428375,381.436279 368.482117,379.941498 
	C368.756714,372.304352 370.837799,364.804138 370.027283,356.287323 
z"/>
</svg>